<svg width="28" height="28" viewBox="0 0 28 28" fill="none" xmlns="http://www.w3.org/2000/svg">
<path d="M26.7285 13C26.8599 13 26.99 13.0259 27.1114 13.0762C27.2328 13.1264 27.3431 13.2001 27.436 13.293C27.5289 13.386 27.6026 13.4963 27.6529 13.6177C27.7032 13.739 27.729 13.8692 27.729 14.0005C27.729 14.1319 27.7032 14.2621 27.6529 14.3834C27.6026 14.5048 27.5289 14.6151 27.436 14.708C27.3431 14.801 27.2328 14.8747 27.1114 14.9249C26.99 14.9752 26.8599 15.0011 26.7285 15.0011L15.0002 15.0002L15.0011 26.7285C15.0011 26.9938 14.8957 27.2483 14.7081 27.436C14.5204 27.6236 14.2659 27.729 14.0006 27.729C13.7352 27.729 13.4807 27.6236 13.2931 27.436C13.1054 27.2483 13 26.9938 13 26.7285L13.0009 15.0002L1.27264 15.0011C1.00727 15.0011 0.752776 14.8957 0.565135 14.708C0.377495 14.5204 0.272079 14.2659 0.272079 14.0005C0.272079 13.7352 0.377495 13.4807 0.565135 13.293C0.752776 13.1054 1.00727 13 1.27264 13L13.0009 13.0009L13 1.27263C13 1.00726 13.1054 0.752768 13.2931 0.565127C13.4807 0.377486 13.7352 0.27207 14.0006 0.27207C14.2659 0.27207 14.5204 0.377486 14.7081 0.565126C14.8957 0.752767 15.0011 1.00726 15.0011 1.27263L15.0002 13.0009L26.7285 13Z" fill="#FBFBFB"/>
</svg>
